<svg xmlns="http://www.w3.org/2000/svg" viewBox="0 0 178 200" width="178" height="200">
	<style>
		tspan { white-space:pre }
		.shp0 { fill: #fcb426 } 
		.shp1 { fill: #000000 } 
		.shp2 { fill: #ffffff } 
	</style>
	<g >
		<path class="shp0" d="M60.57 0.13C60.51 0.2 59.77 0.58 58.94 0.98C58.1 1.38 56.72 2.03 55.88 2.43C55.03 2.84 54.3 3.17 54.25 3.17C54.2 3.17 53.59 3.44 52.88 3.77C52.16 4.09 51.21 4.54 50.75 4.75C50.29 4.96 47.03 6.44 43.5 8.05C39.97 9.65 35.43 11.72 33.42 12.63C31.4 13.55 29.38 14.46 28.92 14.67C28.46 14.87 27.45 15.34 26.67 15.71C25.89 16.07 24.69 16.62 24 16.92C23.31 17.21 22.19 17.72 21.5 18.05C20.81 18.37 19.46 18.99 18.5 19.42C17.54 19.85 16.19 20.47 15.5 20.79C14.81 21.11 13.69 21.62 13 21.92C12.31 22.21 11.26 22.69 10.67 22.97C10.07 23.25 7.45 24.45 4.83 25.64L0.08 27.8C0.1 113.51 0.13 118.16 0.37 120.42C0.53 121.79 0.72 123.37 0.82 123.92C0.91 124.47 1.1 125.55 1.23 126.33C1.37 127.11 1.59 128.31 1.72 129C1.86 129.69 2.13 130.89 2.33 131.67C2.52 132.45 2.79 133.48 2.92 133.96C3.06 134.44 3.29 135.26 3.43 135.79C3.58 136.32 4.07 137.88 4.53 139.25C4.99 140.63 5.59 142.31 5.87 143C6.14 143.69 6.82 145.3 7.37 146.58C7.93 147.87 9.06 150.23 9.88 151.83C10.71 153.44 11.79 155.42 12.3 156.25C12.8 157.07 13.38 158.01 13.58 158.33C13.79 158.65 14.38 159.55 14.89 160.33C15.41 161.11 16.14 162.2 16.52 162.75C16.89 163.3 17.85 164.57 18.64 165.56C19.44 166.56 20.91 168.33 21.91 169.48C22.91 170.64 24.79 172.64 26.08 173.92C27.36 175.21 29.36 177.09 30.52 178.09C31.67 179.09 33.2 180.37 33.91 180.92C34.62 181.47 35.44 182.11 35.73 182.36C36.02 182.6 36.7 183.1 37.25 183.48C37.8 183.86 39.32 184.88 40.63 185.75C41.93 186.62 43.04 187.33 43.08 187.33C43.13 187.33 43.82 187.73 44.63 188.22C45.43 188.7 47.43 189.78 49.08 190.61C50.73 191.44 52.98 192.5 54.08 192.95C55.18 193.41 56.83 194.07 57.75 194.41C58.67 194.75 59.68 195.13 60 195.25C60.32 195.37 61.45 195.75 62.5 196.09C63.55 196.43 64.68 196.76 65 196.84C65.32 196.91 66.48 197.2 67.58 197.49C68.68 197.78 70.15 198.13 70.83 198.26C71.52 198.39 72.76 198.62 73.58 198.76C74.41 198.9 75.5 199.09 76 199.18C76.5 199.27 78.08 199.47 79.5 199.62C81.48 199.83 83.7 199.9 89 199.9C94.3 199.9 96.52 199.83 98.5 199.62C99.92 199.47 101.5 199.27 102 199.18C102.5 199.09 103.59 198.9 104.42 198.76C105.24 198.62 106.48 198.39 107.17 198.26C107.85 198.13 109.32 197.78 110.42 197.49C111.52 197.2 112.68 196.91 113 196.84C113.32 196.76 114.45 196.43 115.5 196.09C116.55 195.75 117.68 195.37 118 195.25C118.32 195.13 119.33 194.75 120.25 194.41C121.17 194.07 122.82 193.41 123.92 192.95C125.02 192.5 127.27 191.44 128.92 190.61C130.57 189.78 132.57 188.7 133.38 188.22C134.18 187.73 134.87 187.33 134.92 187.33C134.96 187.33 136.07 186.62 137.38 185.75C138.68 184.88 140.2 183.86 140.75 183.48C141.3 183.1 141.98 182.6 142.27 182.36C142.56 182.11 143.38 181.47 144.09 180.92C144.8 180.37 146.33 179.09 147.48 178.09C148.64 177.09 150.64 175.21 151.92 173.92C153.21 172.64 155.09 170.64 156.09 169.48C157.09 168.33 158.56 166.56 159.36 165.56C160.15 164.57 161.1 163.3 161.48 162.75C161.85 162.2 162.4 161.41 162.69 161C162.98 160.59 163.98 159.01 164.92 157.5C165.85 155.99 167.29 153.44 168.12 151.83C168.94 150.23 170.07 147.87 170.63 146.58C171.18 145.3 171.86 143.69 172.13 143C172.41 142.31 173.01 140.63 173.47 139.25C173.93 137.88 174.42 136.32 174.57 135.79C174.71 135.26 174.94 134.44 175.08 133.96C175.21 133.48 175.48 132.45 175.67 131.67C175.87 130.89 176.14 129.69 176.28 129C176.41 128.31 176.63 127.11 176.77 126.33C176.9 125.55 177.09 124.47 177.18 123.92C177.28 123.37 177.47 121.87 177.62 120.58C177.85 118.53 177.89 112.84 177.94 72.96C177.99 36.81 177.96 27.67 177.79 27.66C177.68 27.66 176.01 26.94 174.08 26.06C172.16 25.18 169.89 24.13 169.04 23.73C168.19 23.33 167.46 23 167.42 23C167.37 23 166.79 22.73 166.13 22.41C165.46 22.09 164.05 21.44 163 20.97C161.95 20.5 160.48 19.84 159.75 19.5C159.02 19.15 156.77 18.12 154.75 17.2C152.73 16.29 150.52 15.27 149.83 14.95C149.15 14.63 147.8 14.01 146.83 13.58C145.87 13.15 144.6 12.57 144 12.29C143.4 12.01 142.13 11.43 141.17 11C140.2 10.56 138.48 9.78 137.33 9.25C136.19 8.73 134.56 7.97 133.71 7.57C132.86 7.16 132.13 6.83 132.08 6.83C132.04 6.83 131.46 6.58 130.79 6.27C130.13 5.95 128.85 5.35 127.96 4.93C127.06 4.51 126.3 4.17 126.25 4.17C126.2 4.17 125.36 3.78 124.38 3.32C123.39 2.85 122.13 2.28 121.58 2.05C121.03 1.82 119.83 1.26 118.92 0.82C118 0.37 117.06 0 116.83 0C116.59 0 116.33 0.06 116.24 0.14C116.15 0.22 113.83 1.28 111.08 2.5C108.33 3.71 105.63 4.91 105.08 5.16C104.53 5.42 103.45 5.9 102.67 6.24C101.89 6.59 100.95 7 100.58 7.16C100.22 7.33 99.5 7.65 99 7.88C98.5 8.11 96.21 9.14 93.92 10.15C91.63 11.17 89.69 12 89.63 12C89.56 12 87.53 11.17 85.13 10.15C82.72 9.13 80.38 8.12 79.92 7.91C79.46 7.7 77.32 6.78 75.17 5.86C73.01 4.95 70.27 3.78 69.08 3.26C67.89 2.74 66.69 2.22 66.42 2.1C66.14 1.97 65.2 1.57 64.33 1.2C63.46 0.83 62.58 0.48 62.38 0.43C62.17 0.38 62 0.26 62 0.17C62 0.07 61.7 0 61.34 0C60.98 0 60.64 0.06 60.57 0.13Z" />
		<path class="shp1" d="M60.58 8.67C60.22 8.84 59.19 9.32 58.29 9.74C57.4 10.16 56.63 10.5 56.58 10.5C56.54 10.5 55.88 10.79 55.13 11.15C54.37 11.51 52.51 12.36 51 13.05C49.49 13.73 47.88 14.46 47.42 14.67C46.96 14.88 46.1 15.27 45.5 15.54C44.9 15.81 43.97 16.24 43.42 16.5C42.87 16.75 42.04 17.12 41.58 17.33C41.13 17.54 39.51 18.27 38 18.96C36.49 19.64 34.84 20.39 34.33 20.62C33.83 20.86 33.04 21.21 32.58 21.42C32.13 21.63 31.26 22.02 30.67 22.29C30.07 22.57 29.21 22.96 28.75 23.16C28.29 23.37 25.82 24.5 23.25 25.67C20.68 26.84 18.21 27.96 17.75 28.17C17.29 28.37 16.32 28.82 15.58 29.15C14.85 29.49 12.77 30.44 10.96 31.26L7.67 32.75C7.67 114.56 7.69 116.19 8 119.08C8.18 120.73 8.4 122.65 8.5 123.33C8.6 124.02 8.87 125.52 9.09 126.67C9.32 127.81 9.7 129.54 9.94 130.5C10.17 131.46 10.59 133 10.86 133.92C11.13 134.83 11.62 136.37 11.95 137.33C12.27 138.3 12.87 139.95 13.29 141C13.71 142.05 14.31 143.48 14.62 144.17C14.94 144.85 15.54 146.13 15.96 147C16.39 147.87 17.21 149.45 17.8 150.5C18.38 151.55 19.09 152.79 19.38 153.25C19.66 153.71 20.49 154.98 21.22 156.08C21.95 157.18 23.07 158.8 23.72 159.67C24.36 160.54 25.45 161.92 26.14 162.75C26.83 163.57 27.77 164.66 28.23 165.17C28.69 165.67 29.6 166.65 30.26 167.33C30.92 168.02 32.2 169.3 33.11 170.17C34.01 171.04 35.65 172.51 36.75 173.43C37.85 174.36 39.72 175.83 40.92 176.7C42.11 177.57 43.83 178.77 44.75 179.36C45.67 179.96 47.17 180.88 48.08 181.41C49 181.94 50.73 182.88 51.92 183.49C53.11 184.1 54.98 185 56.08 185.49C57.18 185.98 58.87 186.68 59.83 187.04C60.8 187.4 62.33 187.95 63.25 188.25C64.17 188.56 65.55 188.99 66.33 189.22C67.11 189.45 68.69 189.87 69.83 190.14C70.98 190.42 72.37 190.73 72.92 190.84C73.47 190.94 74.25 191.09 74.67 191.17C75.08 191.25 76.2 191.43 77.17 191.57C78.13 191.71 80.08 191.94 81.5 192.08C83.15 192.24 85.86 192.33 89 192.33C92.14 192.33 94.85 192.24 96.5 192.08C97.92 191.94 99.87 191.71 100.83 191.57C101.8 191.43 103 191.24 103.5 191.14C104 191.05 104.79 190.9 105.25 190.8C105.71 190.71 107.02 190.41 108.17 190.14C109.31 189.86 110.89 189.45 111.67 189.22C112.45 188.99 113.83 188.56 114.75 188.25C115.67 187.95 117.2 187.4 118.17 187.04C119.13 186.68 120.82 185.98 121.92 185.49C123.02 185 124.89 184.1 126.08 183.49C127.27 182.88 129 181.94 129.92 181.41C130.83 180.88 132.33 179.96 133.25 179.36C134.17 178.77 135.89 177.57 137.08 176.7C138.27 175.83 140.15 174.36 141.25 173.43C142.35 172.51 143.99 171.04 144.89 170.17C145.8 169.3 147.09 168.02 147.76 167.33C148.43 166.65 149.18 165.86 149.42 165.58C149.66 165.31 150.59 164.22 151.48 163.17C152.38 162.11 153.64 160.54 154.28 159.67C154.92 158.8 155.98 157.3 156.62 156.33C157.26 155.37 158.07 154.13 158.42 153.58C158.77 153.03 159.55 151.68 160.16 150.58C160.77 149.48 161.61 147.87 162.03 147C162.46 146.13 163.06 144.85 163.38 144.17C163.69 143.48 164.29 142.05 164.71 141C165.13 139.95 165.73 138.3 166.05 137.33C166.38 136.37 166.87 134.83 167.14 133.92C167.41 133 167.83 131.46 168.06 130.5C168.29 129.54 168.59 128.22 168.73 127.58C168.86 126.94 169.06 125.97 169.16 125.42C169.26 124.87 169.42 123.89 169.51 123.25C169.6 122.61 169.82 120.73 170 119.08C170.31 116.2 170.33 114.53 170.33 74.38L170.33 32.67C169.36 32.3 168.35 31.85 167.46 31.43C166.56 31.01 165.8 30.67 165.75 30.67C165.7 30.67 164.97 30.34 164.13 29.93C163.28 29.53 161.68 28.79 160.58 28.29C159.48 27.79 158.25 27.22 157.83 27.03C157.42 26.84 148.12 22.58 137.17 17.57C126.21 12.56 117.06 8.46 116.83 8.46C116.6 8.46 115.93 8.69 115.33 8.96C114.74 9.24 113.13 9.97 111.75 10.58C110.38 11.2 108.78 11.92 108.21 12.18C107.64 12.45 107.13 12.67 107.08 12.67C107.04 12.67 106.36 12.97 105.58 13.33C104.8 13.7 104.13 14 104.08 14C104.04 14 103.36 14.3 102.58 14.67C101.8 15.03 101.13 15.33 101.08 15.33C101.04 15.33 100.53 15.55 99.96 15.82C99.39 16.09 96.82 17.24 94.25 18.38C91.68 19.53 88.12 21.11 86.33 21.91C84.55 22.71 82.61 23.58 82.04 23.85C81.47 24.11 80.96 24.33 80.92 24.33C80.87 24.33 80.2 24.63 79.42 25C78.64 25.37 77.96 25.67 77.92 25.67C77.87 25.67 77.2 25.97 76.42 26.33C75.64 26.7 74.96 27 74.92 27C74.87 27 74.2 27.3 73.42 27.67C72.64 28.03 71.96 28.33 71.92 28.33C71.87 28.33 71.29 28.59 70.63 28.9C69.96 29.21 68.95 29.66 68.38 29.9L67.33 30.33C67.91 29.62 70.74 26.96 74 23.95C77.25 20.95 80.24 18.19 80.63 17.83C81.01 17.46 81.31 17.09 81.29 16.99C81.27 16.89 80.2 16.36 78.92 15.82C77.63 15.28 76.43 14.76 76.25 14.68C76.07 14.59 75.58 14.37 75.17 14.19C74.75 14.01 72.54 13.07 70.25 12.09C67.96 11.12 65.78 10.18 65.42 10.01C65.05 9.84 64.02 9.4 63.13 9.02C62.23 8.64 61.44 8.34 61.38 8.34C61.31 8.35 60.95 8.49 60.58 8.67Z" />
		<path class="shp0" d="M76.42 40.85C75.59 40.93 73.94 41.11 72.75 41.26C71.56 41.41 69.72 41.68 68.67 41.86C67.61 42.03 66.38 42.25 65.92 42.33C65.46 42.42 64.56 42.59 63.92 42.72C63.27 42.86 61.32 43.28 59.58 43.66C57.84 44.05 55.89 44.47 55.25 44.6C54.61 44.73 53.11 45.03 51.92 45.26C50.73 45.49 49.15 45.8 48.42 45.93C47.68 46.07 45.73 46.41 44.08 46.68C42.43 46.96 40.56 47.26 39.92 47.34C39.27 47.43 37.51 47.65 36 47.82C34.49 48 32.26 48.2 31.04 48.28C29.77 48.36 28.83 48.49 28.83 48.58C28.84 48.67 29.12 49.05 29.46 49.42C29.8 49.78 30.49 50.53 30.98 51.08C31.48 51.63 33.01 53.32 34.39 54.83C35.77 56.35 37 57.64 37.12 57.71C37.24 57.78 38.14 57.69 39.13 57.52C40.11 57.34 41.52 57.12 42.25 57.02C42.98 56.92 44.93 56.76 46.58 56.66C48.23 56.56 50.22 56.5 51 56.53L52.42 56.59C50.74 57.35 49.24 58.09 48 58.72C46.76 59.35 44.92 60.37 43.92 61C42.91 61.62 41.21 62.76 40.14 63.53C39.07 64.29 37.39 65.59 36.39 66.41C35.4 67.23 33.62 68.84 32.44 69.99C31.26 71.14 29.58 72.91 28.69 73.92C27.81 74.92 26.78 76.13 26.4 76.58C26.03 77.04 25.13 78.24 24.39 79.25C23.66 80.26 22.57 81.87 21.97 82.83C21.37 83.8 20.4 85.41 19.82 86.42C19.24 87.42 18.25 89.34 17.61 90.67C16.98 92 16.25 93.61 15.99 94.25C15.74 94.89 15.56 95.47 15.6 95.54C15.63 95.61 15.91 95.62 16.21 95.57C16.51 95.51 18.42 95.06 20.46 94.57C22.5 94.07 24.35 93.67 24.58 93.67C24.93 93.67 24.99 93.73 24.92 94.04C24.88 94.25 24.77 94.83 24.67 95.33C24.56 95.84 24.37 96.89 24.23 97.67C24.1 98.45 23.88 99.91 23.75 100.92C23.62 101.92 23.43 104.29 23.33 106.17C23.2 108.6 23.2 110.57 23.32 113C23.42 114.88 23.58 116.98 23.68 117.67C23.77 118.35 23.96 119.67 24.1 120.58C24.23 121.5 24.42 122.63 24.52 123.08C24.62 123.54 24.92 124.85 25.19 126C25.47 127.15 25.96 128.95 26.28 130C26.61 131.05 27.21 132.82 27.62 133.92C28.03 135.02 28.59 136.39 28.85 136.96C29.12 137.53 29.33 138.04 29.33 138.08C29.33 138.13 29.81 139.12 30.39 140.29C30.97 141.46 31.69 142.87 32 143.42C32.3 143.97 32.97 145.09 33.48 145.92C33.98 146.74 34.81 148.02 35.31 148.75C35.81 149.48 36.41 150.35 36.65 150.67C36.89 150.99 37.64 151.96 38.33 152.83C39.02 153.7 39.95 154.83 40.39 155.33C40.84 155.84 41.97 157.04 42.91 158C43.85 158.96 45.32 160.39 46.18 161.18C47.04 161.97 48.35 163.1 49.08 163.69C49.82 164.29 51.29 165.41 52.36 166.18C53.44 166.95 55.2 168.12 56.28 168.78C57.36 169.43 58.63 170.17 59.08 170.42C59.54 170.67 59.99 170.93 60.08 171C60.17 171.06 60.42 171.17 60.63 171.23C60.93 171.31 60.98 171.28 60.89 171.04C60.82 170.88 60.55 170.38 60.28 169.92C60.01 169.46 59.44 168.37 59.01 167.5C58.58 166.63 58 165.35 57.72 164.67C57.44 163.98 57.01 162.85 56.78 162.17C56.55 161.48 56.17 160.24 55.95 159.42C55.72 158.59 55.42 157.35 55.28 156.67C55.13 155.98 54.88 154.59 54.72 153.58C54.49 152.17 54.43 150.75 54.43 147.33C54.43 143.97 54.5 142.49 54.71 141.13C54.87 140.14 54.94 139.25 54.88 139.15C54.79 139.02 54.5 139 54 139.08C53.59 139.14 51.45 139.2 49.25 139.19C46.46 139.19 44.69 139.11 43.42 138.93C42.41 138.78 41.06 138.53 40.43 138.37C39.28 138.09 39.27 138.07 38.89 137.25C38.68 136.79 38.32 135.78 38.08 135C37.84 134.22 37.51 132.87 37.33 132C37.16 131.13 36.9 129.48 36.77 128.33C36.63 127.19 36.48 125.16 36.43 123.83C36.38 122.5 36.41 119.92 36.5 118.08C36.59 116.25 36.73 114.67 36.81 114.58C36.91 114.48 37.14 114.88 37.42 115.67C37.67 116.35 38.25 117.63 38.7 118.5C39.16 119.37 39.95 120.68 40.46 121.42C40.97 122.15 41.85 123.31 42.42 124C42.99 124.69 44.16 125.92 45.02 126.73C45.88 127.54 47.3 128.74 48.17 129.4C49.04 130.06 50.46 131.03 51.33 131.57C52.2 132.11 53.67 132.92 54.58 133.36L56.25 134.17C56.98 131.91 57.45 130.63 57.76 129.88C58.08 129.12 58.71 127.75 59.17 126.83C59.63 125.92 60.29 124.7 60.65 124.13L61.3 123.08C59.46 122.18 58.32 121.59 57.59 121.19C56.85 120.79 55.73 120.12 55.08 119.7C54.44 119.29 53.32 118.49 52.58 117.94C51.85 117.38 50.55 116.25 49.69 115.42C48.83 114.59 47.67 113.35 47.12 112.67C46.56 111.98 45.72 110.82 45.24 110.08C44.75 109.35 44.03 108.11 43.63 107.33C43.22 106.55 42.68 105.35 42.41 104.67C42.15 103.98 41.74 102.67 41.5 101.75C41.15 100.4 41.01 100.07 40.74 100.03C40.53 100 40.03 100.33 39.35 100.95C38.76 101.48 37.96 102.37 37.57 102.92C37.18 103.47 36.49 104.67 36.03 105.58L35.21 107.25C34.92 104.92 34.83 103.72 34.83 103.08C34.83 102.44 34.91 101.09 35.01 100.08C35.1 99.08 35.3 97.65 35.44 96.92C35.58 96.18 35.84 95.04 36.01 94.38C36.19 93.71 36.49 92.7 36.69 92.13C36.88 91.55 37.43 90.26 37.91 89.25C38.38 88.24 39.17 86.78 39.66 86C40.14 85.22 40.96 84.02 41.48 83.33C41.99 82.65 43.16 81.31 44.08 80.36C45 79.41 46.07 78.41 46.46 78.15C46.85 77.88 47.2 77.67 47.25 77.67C47.3 77.67 47.3 77.82 47.25 78C47.2 78.18 47.26 78.4 47.38 78.48C47.49 78.56 47.65 79.15 47.72 79.77C47.8 80.4 47.97 81.4 48.11 82C48.24 82.6 48.54 83.72 48.78 84.5C49.01 85.28 49.57 86.7 50.03 87.67C50.48 88.63 51.35 90.17 51.96 91.08C52.7 92.19 53.73 93.42 55.07 94.75C56.41 96.08 57.64 97.13 58.75 97.86C59.67 98.46 60.79 99.17 61.25 99.42C61.71 99.67 62.68 100.12 63.42 100.42C64.15 100.72 65.24 101.13 65.83 101.32C66.43 101.52 67.37 101.78 67.92 101.91C68.47 102.04 69.76 102.26 70.79 102.4C71.82 102.55 73.04 102.67 73.5 102.67C73.96 102.67 74.37 102.59 74.42 102.5C74.46 102.41 74.19 101.98 73.82 101.54C73.44 101.11 72.76 100.15 72.31 99.42C71.86 98.68 71.24 97.41 70.92 96.58C70.61 95.76 70.24 94.54 70.09 93.88C69.93 93.11 69.83 91.85 69.84 90.46C69.84 88.92 69.94 87.82 70.15 86.83C70.33 86.05 70.65 84.93 70.88 84.33C71.11 83.74 71.5 82.88 71.75 82.42C72 81.96 72.53 81.13 72.92 80.58C73.31 80.03 73.83 79.4 74.07 79.17C74.31 78.94 74.51 78.81 74.5 78.88C74.5 78.94 74.89 78.43 75.38 77.73C75.86 77.02 76.67 75.99 77.18 75.43C77.69 74.87 78.67 73.99 79.35 73.46C80.03 72.94 80.64 72.51 80.71 72.5C80.78 72.5 81.08 72.32 81.38 72.1C81.67 71.88 82.55 71.4 83.33 71.04C84.11 70.68 85.22 70.22 85.79 70.03C86.36 69.83 87.38 69.52 88.04 69.35C88.71 69.17 89.92 68.9 90.75 68.74C91.85 68.52 93.09 68.45 95.42 68.45C97.74 68.45 98.98 68.52 100.08 68.74C100.91 68.9 102.13 69.17 102.79 69.35C103.46 69.52 104.47 69.83 105.04 70.02C105.61 70.21 106.68 70.65 107.42 70.99C108.18 71.34 109.04 71.62 109.42 71.63C109.78 71.64 110.65 71.73 111.33 71.83C112.02 71.93 113.63 72.12 114.92 72.26C116.2 72.41 119.27 72.56 121.75 72.61C124.37 72.67 126.98 72.63 128 72.53C128.96 72.44 130.14 72.28 130.63 72.18C131.12 72.08 131.5 71.91 131.5 71.79C131.5 71.68 129.47 68.92 127 65.67C124.52 62.41 122.5 59.69 122.5 59.63C122.5 59.56 122.95 59.5 123.5 59.5C124.05 59.5 125.04 59.38 125.71 59.23C126.37 59.09 127.93 58.49 129.17 57.91C130.4 57.32 131.83 56.77 132.33 56.67C132.84 56.57 133.55 56.54 133.92 56.6C134.28 56.66 134.79 56.83 135.04 56.98C135.3 57.13 135.5 57.32 135.5 57.42C135.5 57.51 135.15 58.03 134.71 58.59C134.27 59.14 133.45 60.21 132.88 60.96C132.3 61.72 131.83 62.41 131.83 62.5C131.83 62.59 132.68 63.85 133.72 65.29C134.76 66.74 136.31 68.9 137.18 70.11C138.62 72.12 138.78 72.29 139.17 72.19C139.4 72.13 140.37 72.09 141.33 72.09C142.76 72.1 143.34 72.18 144.5 72.55C145.28 72.8 146.46 73.32 147.12 73.71C147.78 74.1 148.82 74.87 149.44 75.42C150.06 75.97 151.01 77.02 151.55 77.75C152.1 78.48 152.83 79.66 153.19 80.38C153.54 81.09 153.98 82.06 154.15 82.54C154.33 83.02 154.58 83.83 154.72 84.33C154.86 84.84 155.06 85.77 155.17 86.42C155.28 87.06 155.39 88.41 155.42 89.42C155.45 90.42 155.54 91.3 155.61 91.36C155.69 91.41 156.91 92.33 158.33 93.4C159.75 94.47 160.97 95.34 161.04 95.34C161.11 95.34 161.17 95.01 161.17 94.63C161.17 94.24 161.06 93.05 160.93 92C160.8 90.95 160.53 89.3 160.34 88.33C160.14 87.37 159.8 85.95 159.58 85.17C159.36 84.39 159 83.19 158.78 82.5C158.55 81.81 158.11 80.57 157.79 79.75C157.47 78.92 156.81 77.42 156.32 76.42C155.83 75.41 155.09 73.98 154.67 73.25C154.24 72.52 153.44 71.24 152.89 70.42C152.33 69.59 151.27 68.17 150.54 67.25C149.8 66.33 148.57 64.94 147.81 64.15C147.04 63.36 145.82 62.2 145.08 61.56C144.35 60.91 143.28 60.04 142.71 59.61C142.14 59.18 141.66 58.74 141.66 58.63C141.66 58.51 143.49 56.6 145.74 54.38C147.99 52.15 149.83 50.26 149.83 50.17C149.83 50.07 149.51 49.92 149.13 49.82C148.74 49.73 147.85 49.49 147.17 49.3C146.48 49.11 144.79 48.59 143.42 48.13C142.04 47.67 139.68 46.81 138.17 46.21C136.65 45.61 135.12 44.99 134.75 44.83C134.38 44.66 133.37 44.29 132.5 43.99C131.63 43.7 130.43 43.35 129.83 43.22C129.24 43.09 127.96 42.87 127 42.75C126.04 42.62 124.16 42.51 122.83 42.5C121.5 42.5 119.59 42.61 118.58 42.74C117.58 42.87 116.04 43.17 115.17 43.4C114.3 43.62 113.13 43.97 112.58 44.17C112.03 44.37 111.1 44.77 110.5 45.05C109.9 45.33 108.89 45.88 108.25 46.28C107.61 46.67 107.05 46.99 107 47C106.95 47 106.28 46.59 105.5 46.07C104.72 45.55 103.41 44.81 102.58 44.42C101.76 44.03 100.41 43.47 99.58 43.18C98.76 42.88 97.52 42.5 96.83 42.31C96.15 42.13 95.25 41.91 94.83 41.82C94.42 41.74 93.45 41.55 92.67 41.42C91.89 41.28 90.2 41.05 88.92 40.92C87.37 40.75 85.12 40.67 82.25 40.69C79.87 40.7 77.24 40.77 76.42 40.85Z" />
		<path class="shp1" d="M76.25 54.93C75.61 55.06 74.67 55.37 74.17 55.62C73.66 55.88 73.23 56.2 73.21 56.33C73.19 56.48 75.39 58.32 78.78 61C81.86 63.43 84.88 65.8 85.49 66.27L86.58 67.12C88 66.78 88.9 66.57 89.5 66.43C90.1 66.29 91.37 66 92.33 65.77C93.3 65.55 94.65 65.23 95.33 65.07C96.02 64.91 97.26 64.62 98.08 64.41C99.23 64.13 99.65 64.09 99.85 64.23C100 64.33 100.49 64.69 100.93 65.03C101.38 65.37 102.2 65.87 102.75 66.14C103.3 66.41 104.31 66.82 105 67.05C105.69 67.28 106.46 67.51 106.71 67.57C107.03 67.64 107.19 67.59 107.25 67.42C107.3 67.28 106.78 66.25 106.1 65.13C105.42 64 104.69 62.78 104.47 62.4C104.26 62.02 103.26 60.32 102.25 58.61C101.24 56.91 100.32 55.51 100.2 55.51C100.09 55.5 99.66 55.84 99.25 56.25C98.84 56.66 98.36 57.28 98.18 57.63C98.01 57.97 97.82 58.53 97.77 58.88L97.67 59.5C96.31 59.5 95.24 59.35 94.42 59.18C93.59 59.01 92.35 58.67 91.67 58.44C90.98 58.2 89.59 57.61 88.58 57.11C87.58 56.62 86.3 56.06 85.75 55.87C85.2 55.68 84.45 55.44 84.08 55.34C83.72 55.23 82.74 55.04 81.92 54.91C81.09 54.78 79.74 54.68 78.92 54.69C78.09 54.69 76.89 54.8 76.25 54.93ZM132.25 56.66C131.88 56.73 130.53 57.28 129.25 57.88C127.97 58.48 126.37 59.09 125.71 59.23C125.04 59.38 124.05 59.5 123.5 59.5C122.95 59.5 122.5 59.56 122.5 59.63C122.5 59.69 124.52 62.41 127 65.67C129.47 68.92 131.5 71.68 131.5 71.79C131.5 71.91 131.12 72.08 130.63 72.18C130.14 72.28 128.96 72.44 128 72.53C126.98 72.63 124.37 72.67 121.75 72.61C119.27 72.56 116.2 72.4 114.92 72.26C113.63 72.12 111.98 71.92 111.25 71.83C110.52 71.73 109.61 71.63 109.24 71.62L108.56 71.58C109.09 72.49 110.15 73.66 111.25 74.76C112.35 75.87 113.96 77.34 114.83 78.02C115.7 78.71 116.64 79.43 116.92 79.62C117.19 79.81 118.04 80.6 118.79 81.36C119.55 82.12 120.47 83.2 120.85 83.75C121.22 84.3 121.74 85.2 122 85.75C122.25 86.3 122.58 87.13 122.72 87.58C122.86 88.04 122.92 88.5 122.86 88.6C122.8 88.7 122.45 88.94 122.08 89.13C121.72 89.31 120.93 89.67 120.33 89.91C119.74 90.16 118.42 90.66 117.42 91.03C116.41 91.4 115.21 91.81 114.75 91.94C114.29 92.08 113.2 92.37 112.33 92.6C111.46 92.82 110 93.15 109.08 93.33C108.17 93.5 106.74 93.74 105.92 93.86C105.09 93.98 102.99 94.08 101.25 94.08C99.42 94.08 97.45 93.99 96.58 93.86C95.76 93.73 94.48 93.48 93.75 93.3C93.02 93.12 92.12 92.9 91.75 92.81C91.38 92.71 90.95 92.55 90.79 92.44C90.52 92.27 90.55 92.22 91.04 91.97C91.34 91.82 92.07 91.5 92.67 91.25C93.26 91 94.27 90.54 94.92 90.21C95.56 89.89 96.4 89.41 96.79 89.15C97.18 88.88 97.5 88.61 97.5 88.54C97.5 88.47 96.09 88.36 94.38 88.3C92.66 88.23 90.61 88.07 89.83 87.93C89.05 87.78 88 87.56 87.5 87.43C87 87.3 86.32 87.11 86 87.02C85.68 86.92 84.93 86.61 84.33 86.32C83.74 86.03 82.78 85.47 82.21 85.07C81.64 84.66 80.88 83.94 80.52 83.46C80.17 82.98 79.83 82.43 79.76 82.25C79.65 81.96 79.69 81.93 80.03 82.03C80.24 82.09 80.83 82.26 81.33 82.42C81.84 82.57 83.28 82.91 84.54 83.18C85.8 83.45 87.45 83.74 88.21 83.83C88.96 83.92 90.75 84.08 92.17 84.19C93.69 84.3 95.43 84.33 96.42 84.25C97.51 84.17 97.97 84.08 97.75 83.99C97.57 83.92 96.63 83.62 95.67 83.33C94.7 83.04 93.35 82.62 92.67 82.39C91.98 82.16 90.78 81.7 90 81.38C89.22 81.06 88.06 80.53 87.42 80.21C86.77 79.88 85.76 79.3 85.17 78.91C84.57 78.52 83.61 77.72 83.03 77.14C82.46 76.56 81.81 75.71 81.59 75.25C81.35 74.74 81.17 74.03 81.14 73.4C81.09 72.58 81.03 72.39 80.83 72.46C80.7 72.51 80.03 72.97 79.35 73.48C78.67 74 77.69 74.87 77.18 75.43C76.67 75.99 75.82 77.08 75.31 77.85C74.79 78.62 74.2 79.66 74 80.17C73.8 80.67 73.5 81.53 73.33 82.08C73.16 82.63 72.93 83.83 72.81 84.75C72.64 86.09 72.65 86.74 72.82 88.08C72.94 89 73.22 90.27 73.46 90.92C73.69 91.56 74.12 92.57 74.42 93.17C74.72 93.76 75.41 94.85 75.96 95.58C76.51 96.32 77.63 97.55 78.45 98.33C79.27 99.11 80.62 100.2 81.43 100.75C82.25 101.3 83.67 102.13 84.58 102.6C85.5 103.07 86.85 103.66 87.58 103.91C88.32 104.17 89.4 104.5 90 104.65C90.9 104.87 91.08 104.97 91.05 105.25C91.04 105.43 90.76 106.15 90.45 106.83C90.13 107.52 89.52 108.98 89.09 110.08C88.66 111.18 88.23 112.27 88.14 112.5C88.04 112.73 87.6 114 87.16 115.33C86.72 116.66 86.09 118.69 85.78 119.83C85.46 120.98 85.16 122.1 85.12 122.33C85.07 122.56 84.88 123.42 84.7 124.25C84.52 125.08 84.25 126.54 84.1 127.5C83.96 128.46 83.76 130.07 83.67 131.08C83.57 132.09 83.5 133.65 83.5 134.54C83.5 135.44 83.57 136.9 83.67 137.79C83.76 138.69 83.95 139.98 84.1 140.67C84.25 141.35 84.55 142.48 84.78 143.17C85.01 143.85 85.5 145.02 85.87 145.75C86.24 146.48 86.93 147.61 87.41 148.25C87.89 148.89 88.62 149.72 89.02 150.09C89.42 150.47 90.2 151.11 90.75 151.51C91.3 151.92 92.35 152.54 93.08 152.89C94.37 153.51 94.43 153.52 94.69 153.23C94.84 153.06 95.61 151.94 96.41 150.75C97.21 149.56 98.03 148.45 98.22 148.28C98.56 148 99.46 147.99 115.17 148L131.75 148C131.57 146.64 131.46 145.5 131.4 144.58C131.34 143.67 131.38 141.72 131.49 140.25C131.59 138.78 131.75 137.17 131.83 136.67C131.91 136.16 132.1 135.04 132.25 134.17C132.4 133.3 132.6 132.21 132.69 131.75C132.79 131.29 133.01 130.28 133.19 129.5C133.36 128.72 133.58 127.78 133.67 127.42C133.76 127.05 134.14 125.63 134.51 124.25C134.88 122.88 135.41 121 135.69 120.08C135.97 119.17 136.53 117.44 136.93 116.25C137.32 115.06 137.96 113.22 138.34 112.17C138.72 111.11 139.1 110.02 139.2 109.75C139.29 109.47 139.42 109.1 139.5 108.92C139.58 108.73 139.84 108.02 140.09 107.33C140.34 106.65 140.64 105.86 140.76 105.58C140.88 105.31 141.37 104.11 141.84 102.92C142.31 101.72 142.75 100.64 142.81 100.51C142.87 100.38 143.55 99.86 144.33 99.35C145.11 98.84 146.38 97.82 147.15 97.09C147.91 96.35 148.86 95.3 149.26 94.75C149.65 94.2 150.18 93.3 150.42 92.75C150.67 92.2 150.97 91.36 151.1 90.88C151.23 90.39 151.33 89.27 151.33 88.38C151.33 87.31 151.21 86.29 150.99 85.42C150.81 84.68 150.45 83.63 150.19 83.08C149.94 82.53 149.42 81.67 149.05 81.17C148.67 80.66 147.97 79.87 147.48 79.4C146.98 78.93 146.25 78.33 145.83 78.06C145.42 77.79 144.88 77.48 144.63 77.37L144.17 77.17C143.78 78.97 143.49 79.78 143.28 80.13C143.06 80.47 142.51 81.09 142.05 81.5C141.59 81.91 140.65 82.55 139.95 82.92L138.68 83.58C139.73 83.96 140.39 84 141.5 83.93C142.37 83.88 143.5 83.7 144 83.53C144.5 83.36 145.18 83.08 145.5 82.91L146.08 82.61C145.86 83.36 145.59 83.88 145.34 84.25C145.09 84.62 144.59 85.16 144.23 85.46C143.88 85.77 143.19 86.2 142.71 86.42C142.23 86.65 141.31 86.95 140.67 87.08C140.02 87.22 139.03 87.34 138.46 87.34L137.42 87.35C138.58 88.38 139.5 88.96 140.2 89.3C140.91 89.64 141.49 89.95 141.5 90C141.51 90.05 141.3 90.18 141.05 90.29C140.79 90.4 140.13 90.61 139.58 90.75C138.94 90.91 137.83 91 136.5 91C135.07 90.99 134 90.89 133.08 90.68C132.35 90.51 131.15 90.18 130.42 89.94C129.68 89.7 128.93 89.4 128.75 89.27C128.42 89.04 128.42 89.02 128.73 87.81C128.9 87.13 129.23 86.17 129.46 85.67C129.69 85.16 130.25 84.15 130.71 83.42C131.16 82.68 131.72 81.86 131.95 81.58C132.18 81.31 133.1 80.3 133.99 79.33C134.89 78.37 135.9 77.25 136.24 76.83C136.59 76.42 137.19 75.6 137.58 75C137.96 74.4 138.41 73.58 138.56 73.17C138.83 72.46 138.83 72.39 138.56 72C138.4 71.77 137.37 70.35 136.27 68.83C135.17 67.32 133.72 65.31 133.05 64.38C132.38 63.44 131.83 62.59 131.83 62.5C131.83 62.41 132.3 61.72 132.88 60.96C133.45 60.21 134.27 59.14 134.71 58.59C135.15 58.03 135.5 57.51 135.5 57.42C135.5 57.32 135.3 57.12 135.04 56.97C134.79 56.82 134.21 56.65 133.75 56.61C133.29 56.56 132.62 56.58 132.25 56.66ZM59.38 62.71C59 63.28 58.39 64.37 58.01 65.13C57.64 65.88 57.33 66.54 57.33 66.58C57.33 66.63 57.23 66.91 57.09 67.21C56.96 67.51 56.7 68.27 56.5 68.92C56.31 69.56 56 70.95 55.83 72C55.62 73.23 55.51 74.66 55.51 76C55.52 77.15 55.65 78.83 55.8 79.75L56.08 81.41C57.38 81.62 58.73 81.63 59.92 81.57C61.11 81.52 62.76 81.36 63.58 81.22C64.41 81.09 65.63 80.83 66.29 80.65C66.96 80.48 67.86 80.19 68.29 80.02C68.73 79.85 69.53 79.48 70.08 79.21C70.63 78.93 71.5 78.38 72 77.98C72.89 77.29 72.9 77.26 72.5 77.15C72.27 77.08 71.75 77.03 71.33 77.02C70.92 77.01 69.98 76.89 69.25 76.74C68.52 76.59 67.39 76.29 66.75 76.07C66.11 75.84 65.03 75.34 64.35 74.95C63.61 74.53 62.75 73.85 62.19 73.23C61.67 72.67 61.08 71.89 60.88 71.48C60.68 71.08 60.41 70.49 60.28 70.17C60.15 69.85 59.95 68.95 59.83 68.17C59.7 67.3 59.66 66.2 59.73 65.33C59.79 64.55 59.92 63.44 60.01 62.87C60.1 62.29 60.15 61.78 60.12 61.75C60.08 61.71 59.75 62.14 59.38 62.71Z" />
		<path class="shp2" d="M93.08 68.44C92.63 68.47 91.58 68.62 90.75 68.76C89.92 68.91 88.71 69.17 88.04 69.35C87.38 69.52 86.36 69.83 85.79 70.03C85.22 70.22 84.07 70.7 83.25 71.09C82.42 71.48 81.6 71.91 81.42 72.05C81.13 72.27 81.09 72.46 81.14 73.36C81.17 74.03 81.34 74.72 81.59 75.25C81.81 75.71 82.46 76.56 83.03 77.14C83.61 77.72 84.57 78.52 85.17 78.91C85.76 79.3 86.77 79.88 87.42 80.21C88.06 80.53 89.22 81.06 90 81.38C90.78 81.7 91.98 82.16 92.67 82.39C93.35 82.62 94.7 83.04 95.67 83.34C96.63 83.63 97.6 83.92 97.83 83.99C98.12 84.08 97.67 84.16 96.42 84.25C95.32 84.32 93.58 84.3 92.08 84.19C90.71 84.08 88.96 83.92 88.21 83.83C87.45 83.74 85.8 83.45 84.54 83.18C83.28 82.91 81.84 82.57 81.33 82.42C80.83 82.27 80.29 82.11 80.13 82.07C79.93 82.02 79.83 82.1 79.84 82.29C79.84 82.45 80.14 82.98 80.5 83.46C80.87 83.94 81.64 84.66 82.21 85.07C82.78 85.47 83.7 86.02 84.25 86.28C84.8 86.55 85.66 86.89 86.17 87.05C86.67 87.2 87.38 87.4 87.75 87.5C88.12 87.6 89.05 87.79 89.83 87.93C90.61 88.07 92.71 88.23 94.5 88.28L97.75 88.38C96.85 89.12 96.13 89.58 95.58 89.88C95.03 90.17 93.83 90.73 92.92 91.13C92 91.52 91.08 91.93 90.88 92.04C90.53 92.23 90.53 92.26 90.79 92.44C90.95 92.55 91.38 92.71 91.75 92.81C92.12 92.9 93.02 93.12 93.75 93.3C94.48 93.48 95.76 93.73 96.58 93.86C97.45 93.99 99.42 94.08 101.25 94.08C102.99 94.08 105.09 93.98 105.92 93.86C106.74 93.74 108.17 93.5 109.08 93.33C110 93.15 111.46 92.82 112.33 92.6C113.2 92.37 114.29 92.08 114.75 91.94C115.21 91.81 116.41 91.4 117.42 91.03C118.42 90.66 119.74 90.16 120.33 89.91C120.93 89.67 121.72 89.31 122.08 89.13C122.45 88.94 122.8 88.7 122.86 88.6C122.92 88.5 122.86 88.04 122.72 87.58C122.58 87.13 122.25 86.3 122 85.75C121.74 85.2 121.22 84.3 120.85 83.75C120.47 83.2 119.55 82.12 118.79 81.36C118.04 80.6 117.19 79.81 116.92 79.62C116.64 79.43 115.7 78.71 114.83 78.02C113.96 77.33 112.38 75.9 111.32 74.84C110.26 73.78 109.19 72.6 108.95 72.21C108.59 71.64 108.25 71.39 107.29 70.94C106.63 70.63 105.61 70.22 105.04 70.02C104.47 69.83 103.46 69.52 102.79 69.35C102.13 69.17 100.95 68.91 100.17 68.77C99.39 68.62 97.66 68.47 96.33 68.44C95 68.4 93.54 68.4 93.08 68.44ZM139.51 72.14C139.02 72.23 138.9 72.36 138.61 73.08C138.43 73.54 137.96 74.4 137.57 75C137.19 75.6 136.59 76.42 136.24 76.83C135.9 77.25 134.89 78.37 133.99 79.33C133.1 80.3 132.18 81.31 131.95 81.58C131.72 81.86 131.16 82.68 130.71 83.42C130.25 84.15 129.69 85.16 129.46 85.67C129.23 86.17 128.9 87.13 128.73 87.81C128.42 89.02 128.42 89.04 128.75 89.27C128.93 89.4 129.68 89.7 130.42 89.94C131.15 90.18 132.35 90.51 133.08 90.68C134 90.89 135.07 90.99 136.5 91C137.83 91 138.94 90.91 139.58 90.75C140.13 90.61 140.79 90.42 141.04 90.33C141.29 90.24 141.47 90.11 141.43 90.04C141.4 89.97 140.79 89.62 140.07 89.25C139.36 88.88 138.47 88.31 138.1 87.97L137.42 87.35C139.03 87.34 140.02 87.22 140.67 87.08C141.31 86.95 142.26 86.63 142.79 86.39C143.32 86.14 144.13 85.56 144.59 85.09C145.05 84.63 145.56 83.97 145.71 83.63C145.87 83.28 145.96 82.96 145.92 82.92C145.87 82.87 145.33 83.03 144.71 83.27C144.09 83.51 143.13 83.77 142.58 83.85C142.03 83.93 141.23 83.99 140.79 84C140.36 84 139.68 83.91 139.29 83.8L138.58 83.6C140.64 82.55 141.61 81.91 142.06 81.5C142.51 81.09 143.06 80.47 143.28 80.13C143.49 79.78 143.78 78.97 143.92 78.33L144.17 77.17C144.88 77.48 145.42 77.79 145.83 78.06C146.25 78.33 146.98 78.93 147.48 79.4C147.97 79.87 148.67 80.66 149.05 81.17C149.42 81.67 149.94 82.53 150.19 83.08C150.45 83.63 150.81 84.68 150.99 85.42C151.21 86.29 151.33 87.31 151.33 88.38C151.33 89.27 151.23 90.39 151.1 90.88C150.97 91.36 150.67 92.2 150.42 92.75C150.18 93.3 149.65 94.2 149.26 94.75C148.86 95.3 147.91 96.35 147.15 97.09C146.38 97.82 145.11 98.84 144.33 99.35C143.55 99.86 142.87 100.38 142.81 100.51C142.75 100.64 142.31 101.72 141.84 102.92C141.37 104.11 140.88 105.31 140.76 105.58C140.64 105.86 140.34 106.65 140.09 107.33C139.84 108.02 139.58 108.73 139.5 108.92C139.42 109.1 139.29 109.47 139.2 109.75C139.1 110.02 138.72 111.11 138.34 112.17C137.96 113.22 137.32 115.06 136.93 116.25C136.53 117.44 135.97 119.17 135.69 120.08C135.41 121 134.88 122.88 134.51 124.25C134.14 125.63 133.76 127.05 133.67 127.42C133.58 127.78 133.36 128.72 133.19 129.5C133.01 130.28 132.79 131.29 132.69 131.75C132.6 132.21 132.4 133.3 132.25 134.17C132.1 135.04 131.91 136.16 131.83 136.67C131.75 137.17 131.59 138.78 131.49 140.25C131.38 141.72 131.34 143.67 131.4 144.58C131.46 145.5 131.57 146.64 131.63 147.13L131.75 148C99.46 147.99 98.56 148 98.22 148.28C98.03 148.45 97.21 149.56 96.41 150.75C95.61 151.94 94.84 153.06 94.69 153.23C94.43 153.52 94.37 153.51 93.08 152.89C92.35 152.54 91.3 151.92 90.75 151.51C90.2 151.11 89.42 150.47 89.02 150.09C88.62 149.72 87.89 148.89 87.41 148.25C86.93 147.61 86.24 146.48 85.87 145.75C85.5 145.02 85.01 143.85 84.78 143.17C84.55 142.48 84.25 141.35 84.1 140.67C83.95 139.98 83.76 138.69 83.67 137.79C83.57 136.9 83.5 135.44 83.5 134.54C83.5 133.65 83.57 132.09 83.67 131.08C83.76 130.07 83.96 128.46 84.1 127.5C84.25 126.54 84.52 125.08 84.7 124.25C84.88 123.42 85.07 122.56 85.12 122.33C85.16 122.1 85.46 120.98 85.78 119.83C86.09 118.69 86.72 116.66 87.16 115.33C87.6 114 88.04 112.73 88.14 112.5C88.23 112.27 88.66 111.18 89.09 110.08C89.52 108.98 90.13 107.52 90.45 106.83C90.76 106.15 91.04 105.43 91.05 105.25C91.08 104.97 90.9 104.87 90 104.65C89.4 104.5 88.32 104.17 87.58 103.91C86.85 103.66 85.5 103.07 84.58 102.6C83.67 102.13 82.25 101.3 81.43 100.75C80.62 100.2 79.27 99.11 78.45 98.33C77.63 97.55 76.51 96.32 75.96 95.58C75.41 94.85 74.72 93.76 74.42 93.17C74.12 92.57 73.69 91.56 73.46 90.92C73.22 90.27 72.94 89 72.82 88.08C72.64 86.71 72.65 86.1 72.83 84.67C72.95 83.7 73.22 82.39 73.43 81.75C73.64 81.11 73.97 80.23 74.16 79.79C74.35 79.36 74.5 78.94 74.5 78.88C74.51 78.81 74.31 78.94 74.07 79.17C73.83 79.4 73.31 80.03 72.92 80.58C72.53 81.13 72 81.96 71.75 82.42C71.5 82.88 71.11 83.74 70.88 84.33C70.65 84.93 70.33 86.05 70.15 86.83C69.94 87.82 69.84 88.92 69.84 90.46C69.83 91.85 69.93 93.11 70.09 93.88C70.24 94.54 70.61 95.76 70.92 96.58C71.24 97.41 71.86 98.68 72.31 99.42C72.76 100.15 73.44 101.11 73.82 101.54C74.19 101.98 74.46 102.41 74.42 102.5C74.37 102.59 73.96 102.67 73.5 102.67C73.04 102.67 71.82 102.55 70.79 102.4C69.76 102.26 68.47 102.04 67.92 101.91C67.37 101.78 66.43 101.52 65.83 101.32C65.24 101.13 64.15 100.72 63.42 100.42C62.68 100.12 61.71 99.67 61.25 99.42C60.79 99.17 59.67 98.46 58.75 97.86C57.64 97.13 56.41 96.08 55.07 94.75C53.73 93.42 52.7 92.19 51.96 91.08C51.35 90.17 50.48 88.63 50.03 87.67C49.57 86.7 49.01 85.28 48.78 84.5C48.54 83.72 48.24 82.6 48.11 82C47.97 81.4 47.8 80.4 47.72 79.77C47.65 79.14 47.53 78.6 47.46 78.56C47.39 78.53 47.28 78.55 47.21 78.6C47.14 78.66 46.98 79.09 46.86 79.56C46.73 80.03 46.49 81.24 46.32 82.25C46.15 83.26 46.01 84.89 46 85.88C46 86.86 46.11 88.4 46.25 89.29C46.39 90.19 46.58 91.25 46.68 91.67C46.78 92.08 47.1 93.09 47.38 93.92C47.66 94.74 48.21 96.05 48.59 96.83C48.97 97.61 49.72 98.89 50.24 99.67C50.77 100.45 51.58 101.53 52.04 102.08C52.5 102.63 53.49 103.68 54.24 104.42C54.99 105.15 56.31 106.28 57.17 106.93C58.04 107.58 59.16 108.37 59.67 108.69C60.17 109.01 61.37 109.69 62.33 110.19C63.3 110.69 64.65 111.34 65.33 111.62C66.02 111.91 67.11 112.33 67.75 112.55C68.39 112.78 69.29 113.08 69.75 113.22C70.21 113.36 71.15 113.6 71.83 113.75C72.52 113.91 73.31 114.1 73.58 114.18C73.86 114.25 74.53 114.37 75.08 114.42C75.63 114.48 76.18 114.58 76.29 114.64C76.41 114.7 76.57 115.38 76.67 116.25C76.77 117.08 76.91 118.65 77 119.75C77.09 120.85 77.16 122.71 77.16 123.88C77.16 125.04 77.13 126.11 77.08 126.25C77.03 126.41 76.78 126.5 76.38 126.5C76.03 126.5 75.11 126.42 74.33 126.32C73.55 126.23 72.2 126.03 71.33 125.89C70.46 125.75 68.96 125.45 68 125.22C67.04 124.99 65.35 124.5 64.25 124.13C63.15 123.76 62.04 123.36 61.79 123.23C61.34 123 61.32 123.02 60.83 123.79C60.55 124.23 59.78 125.67 59.11 127C58.44 128.33 57.55 130.37 57.12 131.54C56.69 132.71 56.33 133.8 56.33 133.96C56.33 134.12 56.54 134.34 56.79 134.45C57.04 134.56 57.63 134.82 58.08 135.02C58.54 135.23 60.04 135.78 61.42 136.25C62.79 136.72 64.07 137.19 64.25 137.29C64.55 137.45 64.52 137.48 63.92 137.64C63.55 137.74 62.54 137.94 61.67 138.08C60.8 138.23 59.67 138.42 59.17 138.5C58.66 138.59 57.65 138.71 56.92 138.77C56.18 138.83 55.47 138.93 55.33 139C55.17 139.09 54.97 139.76 54.76 141.02C54.49 142.58 54.43 143.7 54.43 147.33C54.43 150.75 54.49 152.17 54.72 153.58C54.88 154.59 55.13 155.98 55.28 156.67C55.42 157.35 55.72 158.59 55.95 159.42C56.17 160.24 56.55 161.48 56.78 162.17C57.01 162.85 57.43 163.98 57.71 164.67C57.99 165.35 58.74 166.93 59.38 168.17C60.02 169.4 60.67 170.67 60.81 170.98C61.04 171.46 61.37 171.68 63 172.45C64.05 172.95 65.7 173.68 66.67 174.08C67.63 174.47 69.32 175.1 70.42 175.47C71.52 175.85 73.11 176.35 73.96 176.58C74.81 176.81 75.53 176.94 75.57 176.88C75.6 176.81 75.26 176.26 74.81 175.67C74.36 175.07 73.56 173.91 73.05 173.08C72.53 172.26 71.72 170.76 71.25 169.75C70.77 168.74 70.19 167.35 69.95 166.67C69.72 165.98 69.44 165.12 69.34 164.75C69.23 164.38 69.01 163.52 68.84 162.83C68.67 162.15 68.45 161.17 68.35 160.67C68.24 160.16 68.07 158.55 67.97 157.08C67.83 155.1 67.83 153.72 67.98 151.71C68.08 150.22 68.25 148.61 68.35 148.13C68.45 147.64 68.68 146.57 68.86 145.75C69.04 144.92 69.25 144.14 69.33 144C69.46 143.79 69.54 143.78 69.95 143.97C70.21 144.1 70.93 144.55 71.57 144.97C72.2 145.4 73.36 146.36 74.15 147.1C74.94 147.84 76.2 149.19 76.95 150.1C77.7 151.01 78.85 152.5 79.51 153.42C80.16 154.33 81.28 156.02 81.99 157.17C82.7 158.31 83.53 159.7 83.83 160.25C84.14 160.8 84.71 161.74 85.1 162.33C85.49 162.93 86.29 163.98 86.87 164.67C87.46 165.35 88.42 166.3 89.01 166.77C89.6 167.24 90.5 167.88 91 168.2C91.5 168.52 92.16 168.87 92.46 168.97L93 169.17C94.03 167.36 94.88 166.28 95.54 165.61C96.21 164.94 97.16 164.12 97.67 163.8C98.17 163.48 98.85 163.1 99.17 162.95C99.49 162.8 100.35 162.47 101.08 162.22L102.42 161.75C126.55 161.66 127.47 161.68 128.24 161.95C128.69 162.12 129.4 162.56 129.82 162.93C130.24 163.31 130.73 163.89 130.92 164.23C131.1 164.56 131.34 164.84 131.46 164.83C131.57 164.83 131.87 164.71 132.13 164.55C132.38 164.39 133.06 163.85 133.65 163.34C134.24 162.83 135.16 161.85 135.71 161.17C136.26 160.48 137.03 159.24 137.42 158.42C137.82 157.59 138.31 156.32 138.51 155.58C138.81 154.52 138.89 153.82 138.89 152.08C138.89 150.5 138.81 149.63 138.58 148.83C138.42 148.24 138.08 147.3 137.84 146.75C137.59 146.2 137.12 145.32 136.78 144.79C136.33 144.09 136.19 143.71 136.25 143.38C136.3 143.12 136.45 141.79 136.59 140.42C136.73 139.04 136.92 137.43 136.99 136.83C137.07 136.24 137.26 135 137.4 134.08C137.55 133.17 137.78 131.82 137.91 131.08C138.05 130.35 138.27 129.19 138.41 128.5C138.55 127.81 138.9 126.31 139.18 125.17C139.46 124.02 139.79 122.75 139.91 122.33C140.03 121.92 140.26 121.13 140.42 120.58C140.58 120.03 141.02 118.65 141.41 117.5C141.8 116.35 142.4 114.7 142.75 113.83C143.09 112.96 143.82 111.31 144.36 110.17C144.91 109.02 145.53 107.76 145.76 107.38C145.98 106.99 146.2 106.69 146.25 106.71C146.29 106.73 146.41 107.2 146.5 107.75C146.6 108.3 146.8 109.5 146.94 110.42C147.08 111.33 147.26 112.53 147.34 113.08C147.42 113.63 147.6 114.91 147.75 115.92C147.89 116.92 148.12 118.46 148.24 119.33C148.36 120.2 148.51 121.12 148.57 121.38C148.62 121.63 148.78 121.83 148.92 121.83C149.05 121.83 149.66 121.25 150.26 120.54C150.86 119.83 151.75 118.65 152.24 117.92C152.72 117.18 153.42 115.98 153.79 115.25C154.15 114.52 154.69 113.32 154.97 112.58C155.26 111.85 155.67 110.58 155.89 109.75C156.12 108.92 156.43 107.46 156.59 106.5C156.8 105.25 156.88 103.84 156.88 101.58C156.88 99.47 156.79 97.86 156.61 96.75C156.46 95.83 156.25 94.67 156.15 94.17C156.04 93.66 155.85 92.8 155.71 92.25C155.58 91.7 155.44 90.42 155.42 89.42C155.39 88.41 155.28 87.06 155.17 86.42C155.06 85.77 154.86 84.84 154.72 84.33C154.58 83.83 154.33 83.02 154.15 82.54C153.98 82.06 153.54 81.09 153.19 80.38C152.83 79.66 152.09 78.48 151.55 77.75C151.01 77.02 150.08 75.98 149.49 75.45C148.9 74.92 147.89 74.17 147.25 73.79C146.61 73.4 145.45 72.88 144.67 72.62C143.62 72.27 142.83 72.13 141.67 72.08C140.8 72.05 139.83 72.07 139.51 72.14Z" />
		<path class="shp1" d="M46.33 78.23C45.92 78.54 44.87 79.53 44 80.43C43.13 81.34 41.99 82.65 41.48 83.33C40.96 84.02 40.14 85.22 39.66 86C39.17 86.78 38.38 88.24 37.91 89.25C37.43 90.26 36.88 91.55 36.69 92.13C36.49 92.7 36.19 93.71 36.01 94.38C35.84 95.04 35.58 96.18 35.44 96.92C35.3 97.65 35.1 99.08 35.01 100.08C34.91 101.09 34.83 102.44 34.83 103.08C34.83 103.72 34.92 104.92 35.02 105.75L35.21 107.25C36.49 104.67 37.18 103.47 37.57 102.92C37.96 102.37 38.76 101.48 39.35 100.95C40.03 100.33 40.53 100 40.74 100.03C41.01 100.07 41.15 100.4 41.5 101.75C41.74 102.67 42.15 103.98 42.41 104.67C42.68 105.35 43.22 106.55 43.63 107.33C44.03 108.11 44.75 109.35 45.24 110.08C45.72 110.82 46.56 111.98 47.12 112.67C47.67 113.35 48.83 114.59 49.69 115.42C50.55 116.25 51.85 117.38 52.58 117.94C53.32 118.49 54.44 119.29 55.08 119.7C55.73 120.12 56.85 120.79 57.58 121.19C58.32 121.59 59.67 122.27 60.58 122.69C61.5 123.11 63.15 123.76 64.25 124.13C65.35 124.5 67.04 124.99 68 125.22C68.96 125.45 70.46 125.75 71.33 125.89C72.2 126.03 73.55 126.23 74.33 126.32C75.11 126.42 76.03 126.5 76.38 126.5C76.78 126.5 77.03 126.41 77.08 126.25C77.13 126.11 77.16 125.04 77.16 123.88C77.16 122.71 77.09 120.85 77 119.75C76.91 118.65 76.77 117.08 76.67 116.25C76.57 115.38 76.41 114.7 76.29 114.64C76.18 114.58 75.63 114.48 75.08 114.42C74.53 114.37 73.86 114.25 73.58 114.18C73.31 114.1 72.52 113.91 71.83 113.75C71.15 113.6 70.21 113.36 69.75 113.22C69.29 113.08 68.39 112.78 67.75 112.55C67.11 112.33 66.02 111.91 65.33 111.62C64.65 111.34 63.3 110.69 62.33 110.19C61.37 109.69 60.17 109.01 59.67 108.69C59.16 108.37 58.04 107.58 57.17 106.93C56.31 106.28 54.99 105.15 54.24 104.42C53.49 103.68 52.5 102.63 52.04 102.08C51.58 101.53 50.77 100.45 50.24 99.67C49.72 98.89 48.97 97.61 48.59 96.83C48.21 96.05 47.66 94.74 47.38 93.92C47.1 93.09 46.78 92.08 46.68 91.67C46.58 91.25 46.39 90.19 46.25 89.29C46.11 88.4 46 86.86 46 85.88C46.01 84.89 46.15 83.26 46.32 82.25C46.49 81.24 46.75 80 46.9 79.5C47.05 79 47.2 78.38 47.24 78.13C47.28 77.87 47.26 77.67 47.2 77.67C47.13 77.67 46.75 77.92 46.33 78.23Z" />
		<path class="shp2" d="M125.08 96.83C124.81 96.9 123.72 97.2 122.67 97.49C121.61 97.78 120.38 98.12 119.92 98.25C119.46 98.38 118.37 98.68 117.5 98.92C116.63 99.16 115.54 99.45 115.08 99.58C114.63 99.7 113.58 99.98 112.75 100.21C111.92 100.43 108.72 101.32 105.62 102.18C102.53 103.04 99.97 103.83 99.94 103.92C99.91 104.01 99.95 105.32 100.02 106.83C100.1 108.35 100.24 110.6 100.33 111.83C100.42 113.07 100.5 114.57 100.5 115.17C100.5 115.76 100.55 116.5 100.62 116.8C100.69 117.1 100.84 117.34 100.96 117.34C101.07 117.34 101.9 116.6 102.79 115.71C103.69 114.81 104.93 113.44 105.55 112.66C106.17 111.89 107.08 110.65 107.57 109.92C108.06 109.18 108.84 107.91 109.31 107.08C109.77 106.26 110.27 105.38 110.41 105.13L110.67 104.67L128.25 104.75C128.32 115.53 128.38 116.82 128.54 116.78C128.66 116.75 129.19 116.21 129.72 115.57C130.25 114.94 131.09 113.82 131.58 113.08C132.06 112.35 132.79 111.11 133.19 110.33C133.6 109.55 134.09 108.54 134.29 108.08C134.49 107.63 134.74 107.02 134.84 106.75C134.95 106.47 135.22 105.65 135.44 104.92C135.66 104.18 136 102.87 136.18 102C136.46 100.7 136.48 100.38 136.3 100.23C136.18 100.13 135.03 99.71 133.75 99.29C132.47 98.87 130.2 98.11 128.71 97.59C127.22 97.08 125.91 96.67 125.79 96.68C125.68 96.69 125.36 96.76 125.08 96.83Z" />
		<path class="shp1" d="M36.75 114.67C36.69 114.76 36.57 116.31 36.49 118.12C36.41 119.94 36.38 122.5 36.43 123.83C36.48 125.16 36.63 127.19 36.77 128.33C36.9 129.48 37.16 131.13 37.33 132C37.51 132.87 37.84 134.22 38.08 135C38.32 135.78 38.68 136.79 38.89 137.25C39.27 138.07 39.28 138.09 40.43 138.37C41.06 138.53 42.41 138.78 43.42 138.93C44.74 139.12 46.38 139.19 49.33 139.18C51.58 139.17 53.83 139.12 54.33 139.08C54.84 139.03 56.11 138.89 57.17 138.75C58.22 138.62 59.53 138.44 60.08 138.35C60.63 138.26 61.76 138.07 62.58 137.92C63.41 137.77 64.18 137.6 64.3 137.53C64.45 137.45 64.4 137.36 64.13 137.22C63.92 137.12 63.04 136.8 62.17 136.51C61.3 136.22 60.06 135.79 59.42 135.55C58.77 135.31 57.05 134.54 55.58 133.84C54.12 133.13 52.2 132.12 51.33 131.58C50.46 131.04 49.04 130.06 48.17 129.4C47.3 128.74 45.88 127.54 45.02 126.73C44.16 125.92 42.99 124.69 42.42 124C41.85 123.31 40.97 122.15 40.46 121.42C39.95 120.68 39.16 119.37 38.7 118.5C38.25 117.63 37.68 116.37 37.45 115.71C37.22 115.04 36.99 114.5 36.94 114.5C36.89 114.5 36.8 114.57 36.75 114.67Z" />
		<path class="shp2" d="M126.61 125.54C126.35 125.75 125.71 126.44 125.19 127.07C124.67 127.71 123.8 128.99 123.24 129.91C122.69 130.83 121.87 132.45 121.43 133.5C120.98 134.55 120.54 135.47 120.43 135.54C120.33 135.61 116.82 135.66 112.63 135.66C108.43 135.67 104.89 135.63 104.75 135.58C104.54 135.51 104.5 134.8 104.5 130.5C104.5 126.67 104.45 125.48 104.29 125.39C104.17 125.33 103.74 125.65 103.24 126.19C102.77 126.68 101.92 127.72 101.34 128.5C100.77 129.28 100.04 130.42 99.73 131.04C99.42 131.66 98.97 132.75 98.73 133.46C98.37 134.52 98.29 135.08 98.27 136.58C98.26 137.97 98.33 138.7 98.58 139.57C98.78 140.25 99.05 140.81 99.25 140.94C99.52 141.13 101.84 141.17 112.42 141.17C119.47 141.16 125.33 141.11 125.44 141.04C125.54 140.97 125.75 139.77 125.9 138.38C126.04 136.98 126.28 134.69 126.42 133.29C126.56 131.89 126.75 130.19 126.84 129.5C126.92 128.81 127.04 127.56 127.1 126.71C127.15 125.86 127.17 125.17 127.14 125.17C127.11 125.17 126.87 125.34 126.61 125.54Z" />
	</g>
</svg>